<svg width="32" height="32" viewBox="0 0 32 32" fill="none" xmlns="http://www.w3.org/2000/svg">
<path fill-rule="evenodd" clip-rule="evenodd" d="M0 5.33333C0 3.91885 0.561903 2.56229 1.5621 1.5621C2.56229 0.561903 3.91885 0 5.33333 0H26.6667C28.0812 0 29.4377 0.561903 30.4379 1.5621C31.4381 2.56229 32 3.91885 32 5.33333V26.6667C32 28.0812 31.4381 29.4377 30.4379 30.4379C29.4377 31.4381 28.0812 32 26.6667 32H5.33333C3.91885 32 2.56229 31.4381 1.5621 30.4379C0.561903 29.4377 0 28.0812 0 26.6667V5.33333ZM17.7778 8.88889C17.7778 8.41739 17.5905 7.96521 17.2571 7.63181C16.9237 7.29841 16.4715 7.11111 16 7.11111C15.5285 7.11111 15.0763 7.29841 14.7429 7.63181C14.4095 7.96521 14.2222 8.41739 14.2222 8.88889V23.1111C14.2222 23.5826 14.4095 24.0348 14.7429 24.3682C15.0763 24.7016 15.5285 24.8889 16 24.8889C16.4715 24.8889 16.9237 24.7016 17.2571 24.3682C17.5905 24.0348 17.7778 23.5826 17.7778 23.1111V8.88889ZM10.6667 14.2222C10.6667 13.7507 10.4794 13.2985 10.146 12.9651C9.81257 12.6317 9.36038 12.4444 8.88889 12.4444C8.41739 12.4444 7.96521 12.6317 7.63181 12.9651C7.29841 13.2985 7.11111 13.7507 7.11111 14.2222V23.1111C7.11111 23.5826 7.29841 24.0348 7.63181 24.3682C7.96521 24.7016 8.41739 24.8889 8.88889 24.8889C9.36038 24.8889 9.81257 24.7016 10.146 24.3682C10.4794 24.0348 10.6667 23.5826 10.6667 23.1111V14.2222ZM24.8889 19.5556C24.8889 19.0841 24.7016 18.6319 24.3682 18.2985C24.0348 17.9651 23.5826 17.7778 23.1111 17.7778C22.6396 17.7778 22.1874 17.9651 21.854 18.2985C21.5206 18.6319 21.3333 19.0841 21.3333 19.5556V23.1111C21.3333 23.5826 21.5206 24.0348 21.854 24.3682C22.1874 24.7016 22.6396 24.8889 23.1111 24.8889C23.5826 24.8889 24.0348 24.7016 24.3682 24.3682C24.7016 24.0348 24.8889 23.5826 24.8889 23.1111V19.5556Z" fill="#FF3A20"/>
</svg>
