<svg width="25" height="24" viewBox="0 0 25 24" fill="none" xmlns="http://www.w3.org/2000/svg">
<path d="M0.5 10.6667H3.16667V13.3333H0.5V10.6667ZM11.1667 2.66667H13.8333V8H11.1667V2.66667ZM8.5 10.6667H13.8333V16H11.1667V13.3333H8.5V10.6667ZM16.5 10.6667H19.1667V13.3333H21.8333V10.6667H24.5V13.3333H21.8333V16H24.5V21.3333H21.8333V24H19.1667V21.3333H13.8333V24H11.1667V18.6667H16.5V16H19.1667V13.3333H16.5V10.6667ZM21.8333 21.3333V16H19.1667V21.3333H21.8333ZM16.5 0H24.5V8H16.5V0ZM19.1667 2.66667V5.33333H21.8333V2.66667H19.1667ZM0.5 0H8.5V8H0.5V0ZM3.16667 2.66667V5.33333H5.83333V2.66667H3.16667ZM0.5 16H8.5V24H0.5V16ZM3.16667 18.6667V21.3333H5.83333V18.6667H3.16667Z" fill="#08A0C3"/>
</svg>
