<svg width="100" height="100" viewBox="0 0 100 100" fill="none" xmlns="http://www.w3.org/2000/svg">
<path d="M39.7916 63.125L75.1041 27.8125C75.9374 26.9792 76.9097 26.5625 78.0208 26.5625C79.1319 26.5625 80.1041 26.9792 80.9374 27.8125C81.7708 28.6458 82.1874 29.6361 82.1874 30.7833C82.1874 31.9306 81.7708 32.9194 80.9374 33.75L42.7083 72.0833C41.8749 72.9167 40.9027 73.3333 39.7916 73.3333C38.6805 73.3333 37.7083 72.9167 36.8749 72.0833L18.9583 54.1667C18.1249 53.3333 17.7249 52.3444 17.7583 51.2C17.7916 50.0556 18.2263 49.0653 19.0624 48.2292C19.8985 47.3931 20.8888 46.9764 22.0333 46.9792C23.1777 46.9819 24.1666 47.3986 24.9999 48.2292L39.7916 63.125Z" fill="black"/>
</svg>
