<svg width="50" height="50" viewBox="0 0 50 50" fill="none" xmlns="http://www.w3.org/2000/svg">
<g clip-path="url(#clip0_30_1033)">
<rect width="50" height="50" fill="white"/>
<rect width="50" height="50" rx="6" fill="#679436"/>
<rect x="0.5" y="0.5" width="49" height="49" rx="5.5" stroke="#7DBB39" stroke-opacity="0.2"/>
<path d="M20.463 17.8774C18.7466 17.8774 17.3552 19.2688 17.3552 20.9852C17.3552 22.7016 18.7466 24.093 20.463 24.093C22.1794 24.093 23.5708 22.7016 23.5708 20.9852C23.5708 19.2688 22.1794 17.8774 20.463 17.8774Z" fill="#FFF8F0"/>
<path d="M26.6786 20.9852C26.6786 19.2688 28.0701 17.8774 29.7865 17.8774C31.5029 17.8774 32.8943 19.2688 32.8943 20.9852C32.8943 22.7016 31.5029 24.093 29.7865 24.093C28.0701 24.093 26.6786 22.7016 26.6786 20.9852Z" fill="#FFF8F0"/>
<path fill-rule="evenodd" clip-rule="evenodd" d="M14.6117 11.1118C14.4934 11.1328 14.3717 11.1438 14.2474 11.1438C13.1031 11.1438 12.1755 10.2161 12.1755 9.07188C12.1755 7.92762 13.1031 7 14.2474 7C15.3916 7 16.3192 7.92762 16.3192 9.07188C16.3192 9.52399 16.1744 9.94229 15.9286 10.2829L17.6729 13.4123C19.7596 12.3169 22.1981 11.7367 24.5384 11.8075C24.7494 11.8138 24.9609 11.8171 25.1727 11.8171C25.3428 11.8171 25.5126 11.815 25.682 11.8109C28.0323 11.7534 30.4874 12.3479 32.5864 13.4584L34.341 10.3104C34.083 9.96493 33.9302 9.53623 33.9302 9.07188C33.9302 7.92762 34.8578 7 36.0021 7C37.1464 7 38.074 7.92762 38.074 9.07188C38.074 10.2161 37.1464 11.1438 36.0021 11.1438C35.8891 11.1438 35.7783 11.1347 35.6703 11.1173L33.9157 14.2651C35.3046 15.2279 36.4541 16.4451 37.1899 17.8651C37.4225 17.7407 37.6882 17.6702 37.9704 17.6702H38.592C39.5074 17.6702 40.2495 18.4123 40.2495 19.3277V22.6427C40.2495 23.5581 39.5074 24.3002 38.592 24.3002H37.9704C37.8293 24.3002 37.6923 24.2826 37.5615 24.2494C36.4385 27.1867 33.5937 29.2727 30.2617 29.2727H20.0221C16.6828 29.2727 13.8307 27.1868 12.6978 24.2469C12.564 24.2817 12.4237 24.3002 12.2791 24.3002H11.6575C10.7421 24.3002 10 23.5581 10 22.6427V19.3277C10 18.4123 10.7421 17.6702 11.6575 17.6702H12.2791C12.5541 17.6702 12.8135 17.7372 13.0418 17.8558C13.778 16.4159 14.9376 15.1844 16.3416 14.2155L14.6117 11.1118ZM30.2617 27.2008H20.0221C16.8328 27.2008 14.2474 24.6154 14.2474 21.4261C14.2474 19.3242 15.3956 17.443 17.3633 16.0299C19.3452 14.6066 21.988 13.8031 24.4758 13.8784C24.707 13.8854 24.9394 13.889 25.1727 13.889C25.36 13.889 25.5467 13.8867 25.7326 13.8821C28.2235 13.8212 30.8783 14.6338 32.8711 16.0636C34.8508 17.484 36.0021 19.3654 36.0021 21.4604C36.0021 24.6308 33.432 27.2008 30.2617 27.2008Z" fill="#FFF8F0"/>
<path d="M25.1247 30.8266C16.7716 30.8266 10 37.5982 10 45.9514V50.1908C10 53.3991 12.6009 56 15.8092 56H23.2107C23.1179 55.9397 23.0268 55.8767 22.9374 55.811C22.323 55.3595 21.8041 54.7911 21.4104 54.1387C21.0168 53.4863 20.7563 52.7626 20.6438 52.0094C20.5314 51.2561 20.5692 50.4882 20.7552 49.7499C20.9412 49.0115 21.2727 48.3171 21.7286 47.7069L22.6622 46.4397C22.9128 46.1114 23.2825 45.8945 23.6918 45.8359C24.101 45.7772 24.5171 45.8815 24.8503 46.1261C25.1836 46.3707 25.4073 46.7362 25.4734 47.1439C25.5395 47.5515 25.4426 47.9686 25.2036 48.3054L24.2702 49.5737C24.0585 49.8507 23.9042 50.167 23.8162 50.5042C23.7283 50.8413 23.7086 51.1927 23.7581 51.5377C23.8076 51.8827 23.9254 52.2144 24.1047 52.5135C24.2839 52.8126 24.521 53.0731 24.8021 53.2798C25.0832 53.4865 25.4027 53.6353 25.7419 53.7174C26.0811 53.7995 26.4333 53.8134 26.7779 53.7582C27.1224 53.7029 27.4524 53.5797 27.7487 53.3957C28.045 53.2118 28.3016 52.9707 28.5035 52.6866L31.3062 48.8824C31.6093 48.4712 31.7856 47.9806 31.8134 47.4706C31.8413 46.9607 31.7196 46.4536 31.4632 46.0116C31.3711 45.8542 31.2792 45.7074 31.1876 45.5713L30.8885 45.1239C30.4992 44.5246 30.2987 44.0474 30.8325 43.3229C31.6005 42.2804 32.473 42.388 33.4033 43.3758C34.3284 44.3599 34.8793 45.6363 34.9603 46.9833C35.0413 48.3303 34.6473 49.6628 33.8467 50.7494L31.044 54.5535C30.6289 55.125 30.1125 55.6152 29.5208 56H34.4402C37.6486 56 40.2495 53.3991 40.2495 50.1908V45.9514C40.2495 44.7203 40.1024 43.5235 39.8248 42.3778C39.6453 42.7979 39.4161 43.1963 39.1413 43.5641L38.2077 44.8314C38.0866 45.0019 37.9328 45.1467 37.7551 45.2572C37.5774 45.3678 37.3795 45.4418 37.1728 45.4751C36.9661 45.5084 36.7548 45.5003 36.5512 45.4511C36.3476 45.402 36.1559 45.3129 35.9871 45.189C35.8184 45.0651 35.676 44.9089 35.5683 44.7295C35.4606 44.5502 35.3898 44.3512 35.3599 44.1442C35.33 43.9372 35.3417 43.7264 35.3943 43.5241C35.4469 43.3217 35.5394 43.1319 35.6662 42.9656L36.6006 41.6961C37.0098 41.1353 37.1799 40.4354 37.0735 39.7495C36.9671 39.0635 36.5929 38.4474 36.0329 38.036C35.4729 37.6246 34.7725 37.4513 34.0852 37.5541C33.3979 37.6569 32.7795 38.0275 32.3653 38.5846L29.5627 42.3888C29.2596 42.8 29.0833 43.2906 29.0554 43.8006C29.0275 44.3105 29.1492 44.8176 29.4056 45.2596C29.4977 45.417 29.5896 45.5638 29.6813 45.6999L29.9803 46.1473C30.3696 46.7466 30.5699 47.2228 30.0363 47.9483C29.2683 48.9908 28.3958 48.8832 27.4655 47.8954C26.5404 46.9113 25.9895 45.6349 25.9085 44.2879C25.8275 42.9409 26.2215 41.6084 27.0221 40.5218L29.8248 36.7177C30.2724 36.1014 30.8378 35.5798 31.4883 35.1828C32.1388 34.7858 32.8616 34.5212 33.6151 34.4043C34.0155 34.3422 34.4203 34.3225 34.823 34.3448C32.1974 32.1486 28.8155 30.8266 25.1247 30.8266Z" fill="#FFF8F0"/>
</g>
<defs>
<clipPath id="clip0_30_1033">
<rect width="50" height="50" fill="white"/>
</clipPath>
</defs>
</svg>
