<svg width="28" height="27" viewBox="0 0 28 27" fill="none" xmlns="http://www.w3.org/2000/svg">
<path d="M6.92935 10.1986L2.68668 14.4413C1.99823 15.1206 1.45095 15.9293 1.07634 16.821C0.701742 17.7127 0.507221 18.6697 0.503983 19.6368C0.500742 20.604 0.688847 21.5622 1.05747 22.4564C1.42609 23.3505 1.96794 24.1629 2.65182 24.8468C3.33571 25.5307 4.14812 26.0726 5.04228 26.4412C5.93644 26.8098 6.89468 26.9979 7.86184 26.9947C8.829 26.9914 9.78596 26.7969 10.6776 26.4223C11.5693 26.0477 12.3781 25.5004 13.0574 24.812L14.4707 23.3986C14.6618 23.2142 14.8143 22.9936 14.9192 22.7497C15.0241 22.5057 15.0794 22.2433 15.0818 21.9777C15.0843 21.7122 15.0338 21.4488 14.9334 21.2029C14.8329 20.9571 14.6845 20.7337 14.4968 20.5459C14.3091 20.358 14.0859 20.2094 13.8401 20.1087C13.5944 20.008 13.3311 19.9573 13.0655 19.9595C12.7999 19.9617 12.5375 20.0167 12.2934 20.1214C12.0494 20.2261 11.8286 20.3784 11.644 20.5693L10.228 21.984C9.60187 22.6045 8.75543 22.9517 7.8739 22.9496C6.99238 22.9476 6.14756 22.5964 5.52431 21.973C4.90107 21.3496 4.55015 20.5047 4.54834 19.6231C4.54654 18.7416 4.894 17.8953 5.51468 17.2693L9.75735 13.0266C10.2159 12.5679 10.7984 12.2529 11.4333 12.1202C12.0683 11.9876 12.7281 12.0431 13.332 12.28C13.5471 12.3653 13.7489 12.4524 13.9373 12.5413L14.556 12.8306C15.3827 13.204 16.0187 13.364 16.828 12.556C17.9907 11.3933 17.6894 10.32 16.272 9.34263C14.8601 8.37111 13.1526 7.92478 11.4459 8.08115C9.73919 8.23752 8.14118 8.98672 6.92935 10.1986ZM14.9427 2.1853L13.5294 3.59863C13.1649 3.97566 12.963 4.48077 12.9673 5.00517C12.9716 5.52957 13.1817 6.0313 13.5524 6.40229C13.923 6.77328 14.4246 6.98386 14.9489 6.98866C15.4733 6.99346 15.9786 6.79211 16.356 6.42796L17.7707 5.01463C18.0781 4.69618 18.4458 4.44213 18.8525 4.26732C19.2591 4.09251 19.6965 4.00044 20.1391 3.99646C20.5817 3.99249 21.0206 4.07671 21.4303 4.2442C21.84 4.41168 22.2123 4.65909 22.5253 4.97197C22.8384 5.28486 23.086 5.65696 23.2537 6.06657C23.4214 6.47618 23.5059 6.91508 23.5022 7.35768C23.4985 7.80028 23.4066 8.23771 23.232 8.64443C23.0575 9.05116 22.8036 9.41905 22.4853 9.72663L18.2427 13.9693C17.7841 14.4281 17.2016 14.7431 16.5667 14.8757C15.9317 15.0083 15.2719 14.9528 14.668 14.716C14.4529 14.6306 14.2511 14.5435 14.0627 14.4546L13.444 14.1653C12.6173 13.792 11.98 13.632 11.172 14.44C10.0093 15.6026 10.3107 16.676 11.728 17.6533C13.1399 18.6248 14.8475 19.0711 16.5541 18.9148C18.2608 18.7584 19.8589 18.0092 21.0707 16.7973L25.3133 12.5546C26.0018 11.8753 26.5491 11.0666 26.9237 10.1749C27.2983 9.28324 27.4928 8.32628 27.4961 7.35912C27.4993 6.39197 27.3112 5.43372 26.9426 4.53956C26.5739 3.6454 26.0321 2.83299 25.3482 2.1491C24.6643 1.46522 23.8519 0.923366 22.9578 0.554746C22.0636 0.186127 21.1053 -0.00197824 20.1382 0.00126186C19.171 0.00450196 18.2141 0.199023 17.3224 0.573625C16.4307 0.948228 15.622 1.49684 14.9427 2.1853Z" fill="#FF3A20"/>
</svg>
