<svg width="298" height="488" viewBox="0 0 298 488" fill="none" xmlns="http://www.w3.org/2000/svg">
<path fill-rule="evenodd" clip-rule="evenodd" d="M44.6992 39.6919C43.5575 39.8945 42.3824 40 41.1825 40C30.1368 40 21.1825 31.0457 21.1825 20C21.1825 8.95435 30.1368 0 41.1825 0C52.2282 0 61.1825 8.95435 61.1825 20C61.1825 24.3643 59.7846 28.4021 57.4121 31.6902L74.2492 61.8979C94.3924 51.324 117.931 45.7234 140.523 46.4067C142.559 46.4683 144.601 46.5 146.645 46.5C148.287 46.5 149.927 46.4795 151.562 46.4395C174.249 45.8853 197.948 51.6235 218.211 62.343L235.148 31.9556C232.657 28.6206 231.183 24.4824 231.183 20C231.183 8.95435 240.137 0 251.183 0C262.228 0 271.183 8.95435 271.183 20C271.183 31.0457 262.228 40 251.183 40C250.092 40 249.022 39.9128 247.979 39.7449L231.043 70.1309C244.449 79.4248 255.546 91.1738 262.648 104.881C264.893 103.681 267.458 103 270.183 103H276.183C285.019 103 292.183 110.163 292.183 119V151C292.183 159.837 285.019 167 276.183 167H270.183C268.82 167 267.498 166.83 266.235 166.509C255.395 194.864 227.934 215 195.77 215H96.9262C64.692 215 37.1607 194.864 26.2241 166.485C24.9331 166.821 23.5787 167 22.1825 167H16.1825C7.34598 167 0.182526 159.837 0.182526 151V119C0.182526 110.163 7.34598 103 16.1825 103H22.1825C24.8376 103 27.3416 103.647 29.5457 104.791C36.6521 90.8918 47.8458 79.0046 61.398 69.6514L44.6992 39.6919ZM195.77 195H96.9262C66.1398 195 41.1825 170.043 41.1825 139.256C41.1825 118.966 52.2662 100.807 71.2612 87.1658C90.3925 73.4265 115.903 65.6711 139.918 66.3975C142.15 66.4651 144.393 66.5 146.645 66.5C148.454 66.5 150.256 66.4775 152.051 66.4336C176.095 65.8459 201.722 73.6895 220.959 87.4917C240.069 101.203 251.183 119.364 251.183 139.587C251.183 170.191 226.373 195 195.77 195ZM101.183 105C84.614 105 71.1825 118.431 71.1825 135C71.1825 151.569 84.614 165 101.183 165C117.751 165 131.183 151.569 131.183 135C131.183 118.431 117.751 105 101.183 105ZM161.183 135C161.183 118.431 174.614 105 191.183 105C207.751 105 221.183 118.431 221.183 135C221.183 151.569 207.751 165 191.183 165C174.614 165 161.183 151.569 161.183 135ZM146.183 230C65.549 230 0.182526 295.366 0.182526 376V416.923C0.182526 447.893 25.289 473 56.2594 473H127.706C126.811 472.418 125.931 471.809 125.068 471.175C119.137 466.817 114.128 461.331 110.328 455.033C106.528 448.735 104.013 441.749 102.928 434.478C101.843 427.207 102.208 419.795 104.003 412.667C105.799 405.539 108.999 398.836 113.399 392.946L122.412 380.713C124.83 377.544 128.399 375.451 132.35 374.885C136.301 374.319 140.317 375.325 143.534 377.687C146.75 380.048 148.91 383.576 149.548 387.511C150.186 391.446 149.251 395.473 146.944 398.724L137.933 410.967C135.89 413.64 134.4 416.693 133.552 419.948C132.703 423.203 132.512 426.595 132.99 429.925C133.468 433.255 134.605 436.457 136.336 439.345C138.066 442.232 140.355 444.747 143.068 446.742C145.782 448.737 148.866 450.173 152.14 450.966C155.415 451.759 158.814 451.892 162.14 451.359C165.466 450.826 168.652 449.637 171.512 447.861C174.372 446.085 176.849 443.758 178.798 441.015L205.852 404.293C208.778 400.324 210.48 395.588 210.749 390.665C211.018 385.743 209.843 380.848 207.368 376.581C206.479 375.062 205.592 373.645 204.707 372.331L201.82 368.012C198.063 362.227 196.127 357.621 201.28 350.627C208.694 340.564 217.116 341.603 226.096 351.137C235.026 360.637 240.344 372.959 241.126 385.961C241.908 398.964 238.104 411.827 230.376 422.315L203.322 459.037C199.314 464.554 194.33 469.285 188.618 473H236.106C267.076 473 292.183 447.893 292.183 416.923V376C292.183 364.116 290.763 352.564 288.083 341.504C286.351 345.56 284.138 349.405 281.485 352.956L272.473 365.189C271.305 366.835 269.82 368.233 268.104 369.299C266.389 370.366 264.478 371.081 262.483 371.403C260.488 371.724 258.448 371.645 256.483 371.171C254.518 370.697 252.667 369.837 251.038 368.641C249.409 367.445 248.034 365.937 246.995 364.206C245.955 362.474 245.271 360.553 244.983 358.555C244.695 356.557 244.808 354.522 245.316 352.569C245.823 350.616 246.716 348.783 247.94 347.178L256.96 334.924C260.91 329.511 262.551 322.754 261.524 316.133C260.497 309.511 256.886 303.564 251.48 299.592C246.074 295.621 239.313 293.948 232.679 294.941C226.044 295.933 220.074 299.51 216.076 304.888L189.022 341.61C186.096 345.579 184.395 350.316 184.125 355.238C183.856 360.161 185.031 365.055 187.506 369.323C188.395 370.841 189.282 372.258 190.167 373.573L193.054 377.891C196.812 383.677 198.746 388.273 193.595 395.277C186.181 405.34 177.759 404.301 168.779 394.766C159.848 385.266 154.53 372.945 153.749 359.942C152.967 346.94 156.77 334.077 164.498 323.588L191.553 286.866C195.874 280.918 201.331 275.883 207.61 272.05C213.89 268.218 220.867 265.664 228.14 264.536C232.005 263.936 235.913 263.746 239.8 263.961C214.456 242.761 181.809 230 146.183 230Z" fill="#FF3A20"/>
</svg>
