<svg width="298" height="488" viewBox="0 0 298 488" fill="none" xmlns="http://www.w3.org/2000/svg">
<path fill-rule="evenodd" clip-rule="evenodd" d="M71 135C71 118.431 84.4315 105 101 105C117.569 105 131 118.431 131 135C131 151.569 117.569 165 101 165C84.4315 165 71 151.569 71 135Z" fill="#FFF8F0"/>
<path fill-rule="evenodd" clip-rule="evenodd" d="M191 105C174.431 105 161 118.431 161 135C161 151.569 174.431 165 191 165C207.569 165 221 151.569 221 135C221 118.431 207.569 105 191 105Z" fill="#FFF8F0"/>
<path fill-rule="evenodd" clip-rule="evenodd" d="M44.5167 39.6919C43.375 39.8945 42.1998 40 41 40C29.9543 40 21 31.0457 21 20C21 8.95435 29.9543 0 41 0C52.0457 0 61 8.95435 61 20C61 24.3643 59.6021 28.4021 57.2296 31.6902L74.0667 61.8979C94.2098 51.324 117.749 45.7234 140.341 46.4067C142.377 46.4683 144.418 46.5 146.463 46.5C148.105 46.5 149.744 46.4795 151.38 46.4395C174.067 45.8853 197.766 51.6235 218.028 62.343L234.965 31.9556C232.475 28.6206 231 24.4824 231 20C231 8.95435 239.954 0 251 0C262.046 0 271 8.95435 271 20C271 31.0457 262.046 40 251 40C249.91 40 248.84 39.9128 247.797 39.7449L230.86 70.1309C244.267 79.4248 255.363 91.1738 262.466 104.881C264.711 103.681 267.276 103 270 103H276C284.837 103 292 110.163 292 119V151C292 159.837 284.837 167 276 167H270C268.638 167 267.315 166.83 266.052 166.509C255.213 194.864 227.752 215 195.587 215H96.7437C64.5095 215 36.9781 194.864 26.0416 166.485C24.7505 166.821 23.3962 167 22 167H16C7.16345 167 0 159.837 0 151V119C0 110.163 7.16345 103 16 103H22C24.6551 103 27.1591 103.647 29.3632 104.791C36.4696 90.8918 47.6633 79.0046 61.2155 69.6514L44.5167 39.6919ZM195.587 195H96.7437C65.9573 195 41 170.043 41 139.256C41 118.966 52.0837 100.807 71.0787 87.1658C90.21 73.4265 115.721 65.6711 139.736 66.3975C141.968 66.4651 144.211 66.5 146.463 66.5C148.271 66.5 150.073 66.4775 151.868 66.4336C175.912 65.8459 201.54 73.6895 220.776 87.4917C239.886 101.203 251 119.364 251 139.587C251 170.191 226.191 195 195.587 195Z" fill="#FF3A20"/>
<path d="M0 376C0 295.366 65.3664 230 146 230C226.634 230 292 295.366 292 376V416.923C292 447.893 266.893 473 235.923 473H56.0769C25.1065 473 0 447.893 0 416.923V376Z" fill="#FF3A20"/>
<path d="M167.741 319.643L193.131 285.18C197.186 279.598 202.308 274.872 208.201 271.275C214.094 267.679 220.642 265.282 227.468 264.223C234.294 263.164 241.264 263.464 247.975 265.106C254.686 266.748 261.006 269.699 266.572 273.789C272.138 277.879 276.839 283.028 280.405 288.938C283.971 294.849 286.331 301.405 287.35 308.228C288.369 315.052 288.026 322.009 286.341 328.698C284.656 335.387 281.662 341.677 277.532 347.204L269.074 358.685C267.978 360.23 266.584 361.541 264.974 362.543C263.365 363.544 261.571 364.215 259.699 364.517C257.826 364.818 255.912 364.744 254.068 364.299C252.223 363.854 250.486 363.047 248.957 361.925C247.429 360.802 246.139 359.387 245.163 357.762C244.188 356.137 243.546 354.334 243.275 352.459C243.005 350.584 243.111 348.675 243.587 346.841C244.064 345.008 244.901 343.288 246.051 341.782L254.515 330.281C258.223 325.201 259.763 318.86 258.799 312.646C257.835 306.432 254.446 300.851 249.372 297.123C244.299 293.396 237.954 291.826 231.727 292.758C225.501 293.689 219.898 297.046 216.147 302.094L190.756 336.557C188.011 340.282 186.414 344.727 186.161 349.346C185.908 353.966 187.011 358.56 189.334 362.564C190.168 363.99 191 365.32 191.831 366.553L194.54 370.606C198.067 376.036 199.882 380.349 195.048 386.922C188.09 396.366 180.186 395.391 171.758 386.443C163.377 377.527 158.386 365.964 157.652 353.761C156.919 341.558 160.488 329.487 167.741 319.643ZM119.785 384.735L128.243 373.255C130.513 370.28 133.862 368.316 137.57 367.785C141.278 367.253 145.047 368.198 148.066 370.414C151.085 372.63 153.112 375.942 153.711 379.634C154.309 383.327 153.432 387.106 151.267 390.157L142.81 401.647C140.892 404.156 139.494 407.021 138.698 410.076C137.901 413.131 137.722 416.314 138.171 419.439C138.619 422.565 139.687 425.57 141.311 428.28C142.935 430.989 145.083 433.349 147.629 435.222C150.176 437.094 153.07 438.442 156.143 439.186C159.216 439.93 162.407 440.055 165.528 439.555C168.649 439.055 171.639 437.939 174.323 436.272C177.007 434.605 179.332 432.421 181.161 429.847L206.551 395.384C209.297 391.659 210.894 387.214 211.147 382.595C211.4 377.975 210.297 373.381 207.974 369.376C207.14 367.951 206.307 366.621 205.477 365.388L202.767 361.335C199.241 355.905 197.425 351.582 202.26 345.019C209.218 335.575 217.122 336.55 225.55 345.498C233.931 354.414 238.921 365.977 239.655 378.18C240.389 390.383 236.82 402.454 229.567 412.298L204.177 446.761C200.121 452.343 195 457.069 189.107 460.666C183.214 464.262 176.665 466.659 169.839 467.718C163.013 468.777 156.044 468.477 149.333 466.835C142.622 465.193 136.302 462.242 130.736 458.152C125.17 454.062 120.469 448.913 116.903 443.003C113.337 437.092 110.977 430.536 109.958 423.712C108.939 416.889 109.282 409.932 110.967 403.243C112.652 396.554 115.655 390.263 119.785 384.735Z" fill="#FFF8F0"/>
<path d="M167.741 319.643L193.131 285.18C197.186 279.598 202.308 274.872 208.201 271.275C214.094 267.679 220.642 265.282 227.468 264.223C234.294 263.164 241.264 263.464 247.975 265.106C254.686 266.748 261.006 269.699 266.572 273.789C272.138 277.879 276.839 283.028 280.405 288.938C283.971 294.849 286.331 301.405 287.35 308.228C288.369 315.052 288.026 322.009 286.341 328.698C284.656 335.387 281.662 341.677 277.532 347.204L269.074 358.685C267.978 360.23 266.584 361.541 264.974 362.543C263.365 363.544 261.571 364.215 259.699 364.517C257.826 364.818 255.912 364.744 254.068 364.299C252.223 363.854 250.486 363.047 248.957 361.925C247.429 360.802 246.139 359.387 245.163 357.762C244.188 356.137 243.546 354.334 243.275 352.459C243.005 350.584 243.111 348.675 243.587 346.841C244.064 345.008 244.901 343.288 246.051 341.782L254.515 330.281C258.223 325.201 259.763 318.86 258.799 312.646C257.835 306.432 254.446 300.851 249.372 297.123C244.299 293.396 237.954 291.826 231.727 292.758C225.501 293.689 219.898 297.046 216.147 302.094L190.756 336.557C188.011 340.282 186.414 344.727 186.161 349.346C185.908 353.966 187.011 358.56 189.334 362.564C190.168 363.99 191 365.32 191.831 366.553L194.54 370.606C198.067 376.036 199.882 380.349 195.048 386.922C188.09 396.366 180.186 395.391 171.758 386.443C163.377 377.527 158.386 365.964 157.652 353.761C156.919 341.558 160.488 329.487 167.741 319.643ZM119.785 384.735L128.243 373.255C130.513 370.28 133.862 368.316 137.57 367.785C141.278 367.253 145.047 368.198 148.066 370.414C151.085 372.63 153.112 375.942 153.711 379.634C154.309 383.327 153.432 387.106 151.267 390.157L142.81 401.647C140.892 404.156 139.494 407.021 138.698 410.076C137.901 413.131 137.722 416.314 138.171 419.439C138.619 422.565 139.687 425.57 141.311 428.28C142.935 430.989 145.083 433.349 147.629 435.222C150.176 437.094 153.07 438.442 156.143 439.186C159.216 439.93 162.407 440.055 165.528 439.555C168.649 439.055 171.639 437.939 174.323 436.272C177.007 434.605 179.332 432.421 181.161 429.847L206.551 395.384C209.297 391.659 210.894 387.214 211.147 382.595C211.4 377.975 210.297 373.381 207.974 369.376C207.14 367.951 206.307 366.621 205.477 365.388L202.767 361.335C199.241 355.905 197.425 351.582 202.26 345.019C209.218 335.575 217.122 336.55 225.55 345.498C233.931 354.414 238.921 365.977 239.655 378.18C240.389 390.383 236.82 402.454 229.567 412.298L204.177 446.761C200.121 452.343 195 457.069 189.107 460.666C183.214 464.262 176.665 466.659 169.839 467.718C163.013 468.777 156.044 468.477 149.333 466.835C142.622 465.193 136.302 462.242 130.736 458.152C125.17 454.062 120.469 448.913 116.903 443.003C113.337 437.092 110.977 430.536 109.958 423.712C108.939 416.889 109.282 409.932 110.967 403.243C112.652 396.554 115.655 390.263 119.785 384.735Z" stroke="#FF3A20" stroke-width="6"/>
</svg>
