<svg width="24" height="25" viewBox="0 0 24 25" fill="none" xmlns="http://www.w3.org/2000/svg">
<path d="M0 11.1667H2.66667V13.8333H0V11.1667ZM10.6667 3.16667H13.3333V8.5H10.6667V3.16667ZM8 11.1667H13.3333V16.5H10.6667V13.8333H8V11.1667ZM16 11.1667H18.6667V13.8333H21.3333V11.1667H24V13.8333H21.3333V16.5H24V21.8333H21.3333V24.5H18.6667V21.8333H13.3333V24.5H10.6667V19.1667H16V16.5H18.6667V13.8333H16V11.1667ZM21.3333 21.8333V16.5H18.6667V21.8333H21.3333ZM16 0.5H24V8.5H16V0.5ZM18.6667 3.16667V5.83333H21.3333V3.16667H18.6667ZM0 0.5H8V8.5H0V0.5ZM2.66667 3.16667V5.83333H5.33333V3.16667H2.66667ZM0 16.5H8V24.5H0V16.5ZM2.66667 19.1667V21.8333H5.33333V19.1667H2.66667Z" fill="#FF3A20"/>
</svg>
