<svg width="17" height="17" viewBox="0 0 17 17" fill="none" xmlns="http://www.w3.org/2000/svg">
<path d="M8 2.25H2.75C2.35218 2.25 1.97064 2.40804 1.68934 2.68934C1.40804 2.97064 1.25 3.35218 1.25 3.75V14.25C1.25 14.6478 1.40804 15.0294 1.68934 15.3107C1.97064 15.592 2.35218 15.75 2.75 15.75H13.25C13.6478 15.75 14.0294 15.592 14.3107 15.3107C14.592 15.0294 14.75 14.6478 14.75 14.25V9" stroke="#FFFFFF" stroke-width="1.5" stroke-linecap="round" stroke-linejoin="round"/>
<path d="M12.7812 1.96868C13.0796 1.67031 13.4842 1.50269 13.9062 1.50269C14.3282 1.50269 14.7328 1.67031 15.0312 1.96868C15.3296 2.26704 15.4972 2.67172 15.4972 3.09368C15.4972 3.51563 15.3296 3.92031 15.0312 4.21868L8.27145 10.9792C8.09336 11.1571 7.87335 11.2874 7.6317 11.3579L5.47695 11.9879C5.41241 12.0067 5.344 12.0079 5.27888 11.9912C5.21376 11.9745 5.15432 11.9406 5.10678 11.8931C5.05925 11.8456 5.02536 11.7861 5.00868 11.721C4.992 11.6559 4.99312 11.5875 5.01195 11.5229L5.64195 9.36818C5.71284 9.12671 5.84335 8.90697 6.02145 8.72918L12.7812 1.96868Z" stroke="#FFFFFF" stroke-width="1.5" stroke-linecap="round" stroke-linejoin="round"/>
</svg>
