<svg width="388" height="235" viewBox="0 0 388 235" fill="none" xmlns="http://www.w3.org/2000/svg">
<path d="M0 235H388V169.24H0V235Z" fill="#FF3A20" fill-opacity="0.2"/>
<path d="M325.92 235H388V-176H325.92V235Z" fill="#FF3A20" fill-opacity="0.2"/>
<path d="M263.84 235H325.92V-176H263.84V235Z" fill="#FF3A20" fill-opacity="0.2"/>
<path d="M356.96 235H388V-176H356.96V235Z" fill="#FF3A20" fill-opacity="0.2"/>
<path d="M356.96 235H388V-176H356.96V235Z" fill="#FF3A20" fill-opacity="0.2"/>
<path d="M325.92 235H356.96V-176H325.92V235Z" fill="#FF3A20" fill-opacity="0.2"/>
<path d="M232.8 235H263.84V-176H232.8V235Z" fill="#FF3A20" fill-opacity="0.2"/>
<path d="M108.64 235H139.68V-176H108.64V235Z" fill="#FF3A20" fill-opacity="0.2"/>
<path d="M77.6 235H108.64V-176H77.6V235Z" fill="#FF3A20" fill-opacity="0.2"/>
<path d="M294.88 235H325.92V-176H294.88V235Z" fill="#FF3A20" fill-opacity="0.2"/>
<path d="M263.84 235H294.88V-176H263.84V235Z" fill="#FF3A20" fill-opacity="0.2"/>
<path d="M232.8 235H263.84V-176H232.8V235Z" fill="#FF3A20" fill-opacity="0.2"/>
<path d="M201.76 235H232.8V-176H201.76V235Z" fill="#FF3A20" fill-opacity="0.2"/>
<path d="M139.68 235H170.72V-176H139.68V235Z" fill="#FF3A20" fill-opacity="0.2"/>
<path d="M170.72 235H201.76V-176H170.72V235Z" fill="#FF3A20" fill-opacity="0.2"/>
<path d="M0 103.48V169.24H388V103.48H0Z" fill="#FF3A20" fill-opacity="0.2"/>
<path d="M0 37.72V103.48H388V37.72H0Z" fill="#FF3A20" fill-opacity="0.2"/>
<path d="M0 -28.04V37.72H388V-28.04H0Z" fill="#FF3A20" fill-opacity="0.2"/>
<path d="M0 70.6V136.36H388V70.6H0Z" fill="#FF3A20" fill-opacity="0.2"/>
<path d="M0 -93.8V-28.04H388V-93.8H0Z" fill="#FF3A20" fill-opacity="0.2"/>
<path d="M0 70.6V103.48H388V70.6H0Z" fill="#FF3A20" fill-opacity="0.2"/>
<path d="M0 37.72V70.6H388V37.72H0Z" fill="#FF3A20" fill-opacity="0.2"/>
<path d="M0 37.72V70.6H388V37.72H0Z" fill="#FF3A20" fill-opacity="0.2"/>
<path d="M0 4.84V37.72H388V4.84H0Z" fill="#FF3A20" fill-opacity="0.2"/>
<path d="M0 -28.04V4.84H388V-28.04H0Z" fill="#FF3A20" fill-opacity="0.2"/>
<path d="M0 202.12V235H388V202.12H0Z" fill="#FF3A20" fill-opacity="0.2"/>
<path d="M0 202.12V235H388V202.12H0Z" fill="#FF3A20" fill-opacity="0.2"/>
<path d="M0 202.12V235H388V202.12H0Z" fill="#FF3A20" fill-opacity="0.2"/>
<path d="M0 169.24V202.12H388V169.24H0Z" fill="#FF3A20" fill-opacity="0.2"/>
<path d="M0 169.24V202.12H388V169.24H0Z" fill="#FF3A20" fill-opacity="0.2"/>
<path d="M0 169.24V202.12H388V169.24H0Z" fill="#FF3A20" fill-opacity="0.2"/>
<path d="M0 136.36V169.24H388V136.36H0Z" fill="#FF3A20" fill-opacity="0.2"/>
<path d="M0 136.36V169.24H388V136.36H0Z" fill="#FF3A20" fill-opacity="0.2"/>
<path d="M0 202.12V235H388V202.12H0Z" fill="#FF3A20" fill-opacity="0.2"/>
<path d="M0 103.48V136.36H388V103.48H0Z" fill="#FF3A20" fill-opacity="0.2"/>
<path d="M325.92 235H356.96V-176H325.92V235Z" fill="#FF3A20" fill-opacity="0.2"/>
<path d="M201.76 235H232.8V-176H201.76V235Z" fill="#FF3A20" fill-opacity="0.2"/>
<path d="M294.88 235H325.92V-176H294.88V235Z" fill="#FF3A20" fill-opacity="0.2"/>
<path d="M263.84 235H294.88V-176H263.84V235Z" fill="#FF3A20" fill-opacity="0.2"/>
<path d="M356.96 235H388V-176H356.96V235Z" fill="#FF3A20" fill-opacity="0.2"/>
<path d="M325.92 235H356.96V-176H325.92V235Z" fill="#FF3A20" fill-opacity="0.2"/>
<path d="M0 169.24V202.12H388V169.24H0Z" fill="#FF3A20" fill-opacity="0.2"/>
<path d="M0 136.36V169.24H388V136.36H0Z" fill="#FF3A20" fill-opacity="0.2"/>
<path d="M0 103.48V136.36H388V103.48H0Z" fill="#FF3A20" fill-opacity="0.2"/>
</svg>
